<svg style="display: none;">

    <svg xmlns="http://www.w3.org/2000/svg" width="9" height="9" viewBox="0 0 9 9" fill="none">
        <path d="M0.788408 7.52097C0.726007 7.58337 0.690951 7.668 0.690951 7.75625C0.690951 7.8445 0.726007 7.92913 0.788409 7.99153C0.850809 8.05393 0.935444 8.08899 1.02369 8.08899C1.11194 8.08899 1.19657 8.05393 1.25898 7.99153L7.36618 1.88433L7.32609 6.67112C7.32445 6.71558 7.33175 6.75991 7.34755 6.8015C7.36335 6.84308 7.38733 6.88108 7.41806 6.91324C7.4488 6.9454 7.48568 6.97107 7.52651 6.98873C7.56734 7.00639 7.61129 7.01568 7.65578 7.01606C7.70026 7.01644 7.74437 7.00789 7.78549 6.99093C7.82662 6.97396 7.86392 6.94892 7.8952 6.91729C7.92648 6.88566 7.9511 6.84807 7.9676 6.80676C7.9841 6.76545 7.99216 6.72125 7.99128 6.67677L8.03833 1.07703C8.03869 1.03288 8.03026 0.989102 8.01353 0.948246C7.9968 0.90739 7.97211 0.870272 7.94089 0.839054C7.90967 0.807836 7.87255 0.783142 7.8317 0.766412C7.79084 0.749682 7.74706 0.74125 7.70291 0.741607L2.10317 0.788664C2.05869 0.787787 2.01449 0.795837 1.97318 0.812339C1.93187 0.828841 1.89428 0.85346 1.86265 0.884739C1.83102 0.916018 1.80598 0.953323 1.78901 0.994447C1.77205 1.03557 1.7635 1.07968 1.76388 1.12416C1.76426 1.16865 1.77355 1.21261 1.79121 1.25344C1.80887 1.29427 1.83454 1.33114 1.8667 1.36188C1.89886 1.39262 1.93686 1.41659 1.97844 1.43239C2.02003 1.44819 2.06436 1.45549 2.10882 1.45386L6.89561 1.41376L0.788408 7.52097Z" fill="#6F6F6F"/>
    </svg>
</svg>

